<svg width="153" height="45" viewBox="0 0 153 45" fill="none" xmlns="http://www.w3.org/2000/svg">
<path d="M0 6.98438V0H8.39062V6.98438H0ZM0 44.2969V9.14062H8.39062V44.2969H0ZM11.7188 44.2969V9.14062H20.1094V13.6172C20.4219 12.2734 21 11.1328 21.8438 10.1953C22.7031 9.24219 23.8906 8.76562 25.4062 8.76562C27.8438 8.76562 29.6094 9.51562 30.7031 11.0156C31.8125 12.5156 32.3672 14.5703 32.3672 17.1797V44.2969H24.0938V18.0469C24.0938 17.3594 23.9531 16.7266 23.6719 16.1484C23.3906 15.5547 22.9062 15.2578 22.2188 15.2578C21.5781 15.2578 21.1016 15.4844 20.7891 15.9375C20.4922 16.375 20.3047 16.9297 20.2266 17.6016C20.1484 18.2578 20.1094 18.9141 20.1094 19.5703V44.2969H11.7188ZM45.3047 44.6719C38.3672 44.6719 34.8984 41.1562 34.8984 34.125V31.3359H43.3359V35.4609C43.3359 36.2578 43.4922 36.8828 43.8047 37.3359C44.1172 37.7891 44.6172 38.0156 45.3047 38.0156C46.5234 38.0156 47.1328 37.1016 47.1328 35.2734C47.1328 33.7422 46.8125 32.6016 46.1719 31.8516C45.5312 31.0859 44.75 30.3516 43.8281 29.6484L39.3516 26.2031C37.9453 25.1094 36.875 23.9531 36.1406 22.7344C35.4062 21.5156 35.0391 19.8203 35.0391 17.6484C35.0391 15.6328 35.5156 13.9688 36.4688 12.6562C37.4375 11.3438 38.7109 10.3672 40.2891 9.72656C41.8828 9.08594 43.6016 8.76562 45.4453 8.76562C52.2578 8.76562 55.6641 12.1641 55.6641 18.9609V19.6172H46.9922V18.2812C46.9922 17.5781 46.8672 16.8984 46.6172 16.2422C46.3828 15.5859 45.9141 15.2578 45.2109 15.2578C44.0234 15.2578 43.4297 15.8828 43.4297 17.1328C43.4297 18.3984 43.9297 19.3906 44.9297 20.1094L50.1328 23.9062C51.7578 25.0781 53.1172 26.4688 54.2109 28.0781C55.3203 29.6875 55.875 31.8281 55.875 34.5C55.875 37.8125 54.9297 40.3359 53.0391 42.0703C51.1641 43.8047 48.5859 44.6719 45.3047 44.6719ZM65.6719 44.6719C63.4062 44.6719 61.875 44.1953 61.0781 43.2422C60.2969 42.2734 59.9062 40.7969 59.9062 38.8125V16.8984H57.5391V10.5H59.9062V3.04688H68.0625V10.5H70.4297V16.8984H68.0625V36.8438C68.0625 37.4219 68.1562 37.8281 68.3438 38.0625C68.5312 38.2969 68.8906 38.4141 69.4219 38.4141C69.7969 38.4141 70.1328 38.3828 70.4297 38.3203V44.0391C70.2422 44.1016 69.6562 44.2188 68.6719 44.3906C67.6875 44.5781 66.6875 44.6719 65.6719 44.6719ZM79.5234 44.6719C77.5703 44.6719 76.0781 44.2188 75.0469 43.3125C74.0312 42.4062 73.3359 41.1641 72.9609 39.5859C72.5859 38.0078 72.3984 36.2188 72.3984 34.2188C72.3984 32.0781 72.6094 30.3281 73.0312 28.9688C73.4531 27.5938 74.1719 26.4688 75.1875 25.5938C76.2188 24.7188 77.6328 23.9766 79.4297 23.3672L84.6328 21.5859V17.9766C84.6328 16.0859 84.0156 15.1406 82.7812 15.1406C81.6562 15.1406 81.0938 15.9062 81.0938 17.4375V19.5469H72.9375C72.9219 19.4219 72.9141 19.2656 72.9141 19.0781C72.9141 18.875 72.9141 18.6484 72.9141 18.3984C72.9141 14.8984 73.7344 12.4219 75.375 10.9688C77.0312 9.5 79.6484 8.76562 83.2266 8.76562C85.1016 8.76562 86.7812 9.10156 88.2656 9.77344C89.75 10.4297 90.9219 11.4062 91.7812 12.7031C92.6562 14 93.0938 15.6016 93.0938 17.5078V44.2969H84.75V40.125C84.3438 41.5938 83.6719 42.7188 82.7344 43.5C81.7969 44.2812 80.7266 44.6719 79.5234 44.6719ZM82.8281 38.1562C83.5156 38.1562 83.9844 37.8672 84.2344 37.2891C84.4844 36.7109 84.6094 36.0859 84.6094 35.4141V25.6172C83.4531 26.0859 82.5547 26.6797 81.9141 27.3984C81.2734 28.1016 80.9531 29.1406 80.9531 30.5156V35.0391C80.9531 37.1172 81.5781 38.1562 82.8281 38.1562ZM103.242 44.6719C101.617 44.6719 100.328 44.375 99.375 43.7812C98.4219 43.1875 97.7109 42.3672 97.2422 41.3203C96.7734 40.2734 96.4609 39.0469 96.3047 37.6406C96.1641 36.2344 96.0938 34.7266 96.0938 33.1172V17.8359C96.0938 15.1328 96.5703 12.9453 97.5234 11.2734C98.4922 9.60156 100.125 8.76562 102.422 8.76562C104.125 8.76562 105.43 9.13281 106.336 9.86719C107.258 10.5859 107.969 11.5938 108.469 12.8906V3.04688H117V44.2969H108.469V40.5703C108 41.8359 107.375 42.8359 106.594 43.5703C105.828 44.3047 104.711 44.6719 103.242 44.6719ZM106.453 38.1094C107.25 38.1094 107.781 37.7891 108.047 37.1484C108.328 36.5078 108.469 35.3594 108.469 33.7031V18.9141C108.469 18.0859 108.344 17.2734 108.094 16.4766C107.859 15.6641 107.328 15.2578 106.5 15.2578C105.594 15.2578 105.023 15.6406 104.789 16.4062C104.555 17.1719 104.438 18.0078 104.438 18.9141V33.7031C104.438 36.6406 105.109 38.1094 106.453 38.1094ZM130.453 44.6719C123.453 44.6719 119.953 41.0391 119.953 33.7734V19.6641C119.953 16.3516 120.883 13.7109 122.742 11.7422C124.602 9.75781 127.172 8.76562 130.453 8.76562C133.75 8.76562 136.328 9.75781 138.188 11.7422C140.047 13.7109 140.977 16.3516 140.977 19.6641V33.7734C140.977 41.0391 137.469 44.6719 130.453 44.6719ZM130.453 38.2031C131.156 38.2031 131.656 37.9531 131.953 37.4531C132.266 36.9375 132.422 36.2891 132.422 35.5078V18.3281C132.422 16.2812 131.766 15.2578 130.453 15.2578C129.141 15.2578 128.484 16.2812 128.484 18.3281V35.5078C128.484 36.2891 128.633 36.9375 128.93 37.4531C129.242 37.9531 129.75 38.2031 130.453 38.2031ZM144.094 44.2969V3.04688H152.625V44.2969H144.094Z" fill="black"/>
</svg>
